<?xml version="1.0" encoding="UTF-8"?>
<svg id="_レイヤー_1" data-name="レイヤー_1" xmlns="http://www.w3.org/2000/svg" viewBox="0 0 407.38 282.88">
  <defs>
    <style>
      .cls-1 {
        fill: none;
        stroke: #000;
        stroke-width: 5.01px;
      }

      .cls-2 {
        fill: #fff;
      }
    </style>
  </defs>
  <path d="M246.43,108.05c8.08,1.04,70.22,6.15,110.44,37.07-11.65-1.14-20.45-.97-29.16.3,55.31,36.73,4.37,90.15-75.84,102.97,21.24-14.9,30.5-37.12,33.25-50.2,14.34,12.36,24.29-2.03,24.94-17.04.69-15.9-8.73-33.11-24.89-19.97-3.65-25.09-19.37-43.89-38.73-53.13Z"/>
  <path d="M158.56,250.24c-8.08-1.04-70.22-6.15-110.43-37.07,11.65,1.14,20.45.96,29.16-.3-55.31-36.73-4.37-90.15,75.85-102.96-21.25,14.89-30.51,37.12-33.25,50.2-14.35-12.36-24.29,2.03-24.94,17.04-.69,15.9,8.73,33.12,24.89,19.96,3.64,25.09,19.37,43.89,38.73,53.13Z"/>
  <line class="cls-1" x1="202.28" y1="101.25" x2="202.28" y2="56.3"/>
  <path d="M201.34,204.02c19.87,0,34.44,4.89,43.84,1.71,13.51-4.57,18.94-14.56,18.94-27.11,0-31.23-30.99-42.57-62.79-42.57s-61.44,13.45-61.23,42.57c.1,13.42,4.56,24.55,17.77,28.25,9.47,2.65,22.86-2.85,43.46-2.85Z"/>
  <path class="cls-2" d="M175.18,162.5c3.91,0,7.66,1.55,10.42,4.32,2.76,2.77,4.32,6.52,4.32,10.43,0,8.14-6.6,14.74-14.74,14.74s-14.74-6.6-14.74-14.74c0-3.91,1.55-7.66,4.32-10.43,2.76-2.77,6.51-4.32,10.43-4.32Z"/>
  <path class="cls-2" d="M229.07,162.5c3.91,0,7.66,1.55,10.43,4.32,2.77,2.77,4.32,6.52,4.32,10.43,0,8.14-6.6,14.74-14.74,14.74s-14.74-6.6-14.74-14.74c0-3.91,1.55-7.66,4.32-10.43,2.76-2.77,6.51-4.32,10.42-4.32Z"/>
  <path d="M187.52,47.4c0,8.15,6.61,14.76,14.76,14.76s14.76-6.6,14.76-14.76-6.6-14.76-14.76-14.76-14.76,6.6-14.76,14.76Z"/>
</svg>